PathFileType	4	(X/Y/Z)	C:/Users/opensim2020/Desktop/walking_exp_matlab/subject02_walking05_straight_02.trc																																																																																																																												
DataRate	CameraRate	NumFrames	NumMarkers	Units	OrigDataRate	OrigDataStartFrame	OrigNumFrames																																																																																																																								
100	100	4	42	mm	100	1578	243																																																																																																																								
Frame#	Time	LFHD			RFHD			LBHD			RBHD			C7			T10			CLAV			STRN			RBAK			LSHO			LUPA			LELB			LFRM			LWRA			LWRB			LFIN			RSHO			RUPA			RELB			RFRM			RWRA			RWRB			RFIN			LASI			RASI			LPSI			RPSI			LTHI			LKNE			LTIB			LANK			LHEE			LTOE			RTHI			RKNE			RTIB			RANK			RHEE			RTOE			*39			*40			*41		
		X1	Y1	Z1	X2	Y2	Z2	X3	Y3	Z3	X4	Y4	Z4	X5	Y5	Z5	X6	Y6	Z6	X7	Y7	Z7	X8	Y8	Z8	X9	Y9	Z9	X10	Y10	Z10	X11	Y11	Z11	X12	Y12	Z12	X13	Y13	Z13	X14	Y14	Z14	X15	Y15	Z15	X16	Y16	Z16	X17	Y17	Z17	X18	Y18	Z18	X19	Y19	Z19	X20	Y20	Z20	X21	Y21	Z21	X22	Y22	Z22	X23	Y23	Z23	X24	Y24	Z24	X25	Y25	Z25	X26	Y26	Z26	X27	Y27	Z27	X28	Y28	Z28	X29	Y29	Z29	X30	Y30	Z30	X31	Y31	Z31	X32	Y32	Z32	X33	Y33	Z33	X34	Y34	Z34	X35	Y35	Z35	X36	Y36	Z36	X37	Y37	Z37	X38	Y38	Z38	X39	Y39	Z39	X40	Y40	Z40	X41	Y41	Z41	X42	Y42	Z42
																																																																																																																															
213	2.12	823.52869	1719.37891	-1575.63489	816.91162	1699.14636	-1432.47034	701.22577	1632.49792	-1592.20764	682.55505	1610.64612	-1451.12134	649.00031	1494.56555	-1506.57605	603.23865	1217.96912	-1490.13708	789.64728	1429.97046	-1533.6665	847.54279	1261.19006	-1521.10461	604.93213	1321.98657	-1428.42651	695.45325	1461.63928	-1693.33374	637.0882	1268.22156	-1763.67041	605.2077	1132.40063	-1772.08972	580.461	1004.71686	-1791.92529	613.35095	866.37036	-1786.40027	561.44922	883.32135	-1802.71729	560.24976	816.14716	-1810.32568	753.69586	1471.41724	-1330.85974	770.7453	1283.38855	-1236.50537	823.32385	1145.97888	-1211.69641	894.66699	1047.93921	-1200.27966	983.56769	949.43427	-1228.26514	945.99835	928.49048	-1191.11072	1005.58392	887.70105	-1193.01587	846.52551	971.89301	-1642.03931	851.25415	947.58276	-1383.94714	633.95825	998.85565	-1558.13525	631.64288	993.47369	-1444.375	848.42859	674.3913	-1718.13379	890.58234	476.99521	-1697.22058	873.36206	284.21637	-1712.12866	909.46985	66.41508	-1690.80896	878.01532	36.97868	-1639.05103	1065.62109	31.07375	-1708.4021	715.92407	655.96863	-1300.23218	666.99072	452.53867	-1313.20105	538.20972	312.60147	-1300.16394	428.54883	150.38464	-1319.8042	375.84192	113.44749	-1374.64063	542.10675	33.63033	-1305.41931	710.23694	1774.40808	-1491.72583	-2845.10107	1033.76685	3360.23389	NaN	NaN	NaN
214	2.13	833.07861	1719.92029	-1579.2002	826.07977	1699.49854	-1435.9502	710.51563	1633.34863	-1596.09888	691.60724	1611.49841	-1455.01965	657.97815	1495.28943	-1510.10522	612.48138	1218.45154	-1493.51709	798.56299	1430.73328	-1537.39661	856.76532	1262.08325	-1525.13318	614.20587	1322.3396	-1431.78748	704.33026	1462.42078	-1697.09521	647.76868	1268.31616	-1767.86255	617.12604	1132.2196	-1776.30017	593.34436	1004.64337	-1796.56775	627.37158	866.3454	-1790.37915	575.48676	882.87622	-1807.20044	574.83655	815.65192	-1814.66809	763.02625	1471.96765	-1334.59802	778.099	1283.53308	-1240.76221	831.15302	1146.15625	-1215.66113	902.29492	1047.70703	-1205.00427	991.65894	949.79803	-1233.46545	953.88452	928.26776	-1196.61353	1013.65289	887.92755	-1198.53198	856.41614	973.94983	-1647.10107	861.6582	947.94476	-1389.44629	643.68524	999.74597	-1561.90869	642.56201	993.60059	-1447.7196	859.50311	675.54297	-1721.64319	898.59821	477.22598	-1699.87683	878.34283	284.78241	-1713.62988	910.45691	66.44951	-1690.97742	878.10571	37.09901	-1639.047	1066.46252	30.49227	-1709.17004	727.71729	656.56232	-1303.4187	681.62848	453.16595	-1312.67297	549.82086	316.54156	-1299.72925	435.96979	157.4691	-1319.25598	382.96573	122.82903	-1374.6731	542.66254	33.4273	-1305.42017	719.79333	1775.15076	-1495.4635	-2845.10767	1033.85071	3360.11035	NaN	NaN	NaN
215	2.14	842.56293	1720.38464	-1582.60266	835.31006	1700.05481	-1439.4281	719.8927	1634.32751	-1599.73535	700.57605	1612.52209	-1458.75916	666.75922	1496.05969	-1513.45374	621.6264	1219.09314	-1496.9209	807.40265	1431.67078	-1541.04248	866.00134	1263.21228	-1529.05957	623.28754	1323.12781	-1435.19055	713.17554	1463.51819	-1700.63879	658.65112	1268.64124	-1771.93079	629.27142	1132.37927	-1780.59351	607.03003	1004.4964	-1800.60144	642.02509	866.61603	-1794.47815	590.1673	882.78302	-1811.84338	590.12891	815.43976	-1819.19446	772.14453	1472.8125	-1338.41382	786.04272	1284.0697	-1244.97559	838.7533	1146.45544	-1219.73511	909.94324	1047.8396	-1209.69055	998.98901	950.08246	-1238.76892	961.37604	928.37042	-1202.0033	1021.39252	888.30579	-1204.10596	866.22076	976.60699	-1651.9375	871.57562	948.63483	-1394.96619	653.36121	1000.53381	-1565.57837	653.17291	993.91962	-1450.84619	870.23248	676.58661	-1725.58447	905.43616	477.39032	-1702.46155	882.07684	285.44833	-1714.50098	910.57843	66.28464	-1690.60425	878.22198	37.10878	-1638.91113	1067.0813	29.80857	-1708.87512	739.82715	657.22577	-1306.5437	697.17542	453.53601	-1312.19006	562.67725	320.37125	-1299.00916	445.00851	164.60167	-1318.57935	391.60251	132.72025	-1374.51489	543.92297	33.58035	-1305.87683	729.32959	1775.98425	-1499.09778	-2845.88843	1033.87036	3356.99292	NaN	NaN	NaN
216	2.15	852.16254	1721.1167	-1586.10657	844.51141	1700.85522	-1442.96729	729.13116	1635.45654	-1603.38562	709.51178	1613.76538	-1462.41821	675.4552	1496.93518	-1516.78357	630.73529	1219.85608	-1500.1886	816.16626	1432.80957	-1544.60938	875.16315	1264.4668	-1532.88501	632.29297	1324.08972	-1438.35486	721.88013	1464.80432	-1703.97449	669.34924	1269.32288	-1775.87146	641.61646	1132.79724	-1784.81726	620.85175	1004.78186	-1805.05615	657.25995	867.13074	-1798.6355	605.45807	882.91528	-1816.60168	606.08313	815.47589	-1823.8916	781.49664	1473.90906	-1341.85315	793.8559	1284.99707	-1249.31348	845.66901	1146.83191	-1224.1377	917.16028	1048.16394	-1214.44946	1006.25989	950.62341	-1244.05432	968.61115	928.6048	-1207.35571	1028.65857	888.67413	-1209.76331	875.71967	979.40833	-1656.46887	881.31195	949.62469	-1400.43799	663.21887	1001.11676	-1568.75281	663.29987	994.51935	-1454.00928	880.08191	677.43573	-1729.16699	911.48157	477.5936	-1704.85229	884.50568	285.87042	-1714.66248	910.88977	66.1524	-1690.35583	878.32068	37.08989	-1638.75623	1067.69006	29.51455	-1708.78625	752.09082	657.58691	-1309.23584	713.57428	454.02188	-1311.78796	576.66449	324.0415	-1298.14136	455.26144	171.62758	-1317.9021	401.4072	142.606	-1374.61743	545.4245	33.59414	-1306.57751	738.927	1777.08887	-1502.82043	-2845.22632	1033.86938	3360.29932	NaN	NaN	NaN
